<?xml version="1.0" encoding="UTF-8" ?>
<!DOCTYPE svg PUBLIC "-//W3C//DTD SVG 1.1//EN" "http://www.w3.org/Graphics/SVG/1.1/DTD/svg11.dtd">
<svg width="1024pt" height="1024pt" viewBox="0 0 1024 1024" version="1.1" xmlns="http://www.w3.org/2000/svg">
<g id="#fcfefdff">
<path fill="#fcfefd" opacity="1.00" d=" M 0.00 0.00 L 1024.00 0.00 L 1024.00 1024.00 L 0.00 1024.00 L 0.00 0.00 M 483.63 118.64 C 478.40 124.53 476.02 132.26 474.83 139.90 C 474.77 141.64 474.77 143.38 474.85 145.13 C 475.52 149.52 476.22 153.95 478.15 158.00 C 481.26 165.39 487.22 170.90 493.10 176.08 C 487.75 176.72 482.36 176.34 476.99 176.41 C 443.35 176.42 409.71 176.43 376.07 176.43 C 367.38 176.48 358.69 176.38 350.01 176.81 C 324.20 178.54 298.90 188.28 278.81 204.61 C 251.86 226.05 233.04 258.34 230.39 292.93 C 229.97 307.29 230.37 321.66 230.21 336.03 C 230.11 338.17 230.46 340.48 229.53 342.49 C 226.00 346.64 221.26 349.55 217.55 353.52 C 211.02 360.75 205.61 369.31 203.67 378.96 C 199.84 394.51 202.58 411.85 212.19 424.82 C 215.93 430.01 220.29 434.75 225.32 438.72 C 227.11 440.27 228.97 441.80 230.32 443.78 C 230.65 455.43 229.44 467.28 232.13 478.73 C 237.13 501.62 249.54 522.46 265.69 539.25 C 288.51 562.93 320.90 577.94 354.02 577.40 C 363.32 577.21 372.67 577.78 381.94 576.71 C 381.76 577.50 381.36 578.15 380.73 578.66 C 344.42 608.90 309.20 640.42 273.48 671.38 C 262.07 681.09 252.37 693.39 248.01 707.92 C 242.44 724.87 242.98 744.30 251.77 760.08 C 259.32 774.72 272.83 786.41 288.83 790.76 C 310.68 797.34 336.51 789.60 350.12 771.02 C 356.09 763.64 359.13 754.39 360.59 745.14 C 363.98 740.96 369.11 738.36 372.63 734.26 C 372.87 775.47 372.60 816.71 372.72 857.94 C 373.13 864.54 374.82 871.09 377.78 877.02 C 362.81 881.13 347.08 883.10 332.95 889.88 C 329.01 891.69 325.10 894.57 323.81 898.90 C 323.40 901.62 325.32 903.98 327.18 905.73 C 330.76 908.89 335.26 910.76 339.69 912.42 C 347.49 915.35 355.57 917.42 363.68 919.31 C 402.36 926.58 441.69 929.93 481.01 930.95 C 514.47 931.73 547.99 931.61 581.41 929.45 C 600.51 928.78 619.41 925.86 638.33 923.43 C 649.65 921.72 660.98 919.92 672.09 917.13 C 681.66 914.51 691.61 911.76 699.49 905.46 C 703.00 903.18 703.48 897.43 700.23 894.75 C 695.12 889.85 688.15 887.76 681.71 885.25 C 670.52 881.87 659.10 879.14 647.52 877.57 C 651.81 869.77 653.54 860.77 653.18 851.92 C 653.22 812.68 652.97 773.44 653.32 734.20 C 657.19 737.76 661.61 740.67 665.44 744.28 C 666.91 751.81 668.84 759.37 672.82 766.02 C 678.56 775.48 687.11 783.27 697.23 787.82 C 713.23 795.21 732.62 794.50 748.17 786.25 C 769.23 775.42 782.42 751.62 781.42 728.08 C 780.92 708.02 771.59 688.61 756.88 675.08 C 733.23 654.02 709.12 633.50 685.07 612.92 C 671.36 600.63 656.97 589.15 643.02 577.15 C 658.48 577.01 674.05 578.36 689.40 576.08 C 706.56 572.84 723.36 566.81 738.01 557.19 C 754.26 546.77 767.93 532.49 778.10 516.12 C 787.49 500.33 794.61 482.59 795.09 464.02 C 795.28 458.00 795.14 451.97 795.14 445.95 C 795.25 444.65 795.01 443.08 796.01 442.07 C 800.36 437.30 805.84 433.68 810.01 428.72 C 814.88 422.62 819.04 415.84 821.27 408.30 C 827.98 386.79 819.62 361.77 801.74 348.19 C 799.05 345.64 794.57 343.36 795.25 339.00 C 795.29 329.00 795.25 319.01 795.33 309.01 C 795.26 301.04 795.61 293.01 794.40 285.09 C 791.15 263.75 782.26 243.28 768.68 226.48 C 748.40 200.75 718.40 182.78 685.92 177.99 C 674.06 176.01 662.00 176.58 650.03 176.44 C 610.70 176.27 571.35 176.75 532.03 176.16 C 534.39 173.12 538.19 171.60 540.55 168.50 C 554.30 154.57 553.91 129.71 539.78 116.18 C 525.31 100.20 496.75 101.73 483.63 118.64 Z" />
<path fill="#fcfefd" opacity="1.00" d=" M 292.72 235.65 C 307.51 221.70 326.76 212.53 346.89 209.65 C 353.24 209.10 359.63 208.73 366.02 208.83 C 461.36 208.81 556.71 208.82 652.06 208.81 C 665.42 208.74 679.09 208.41 691.95 212.66 C 699.30 214.98 706.35 218.19 713.14 221.84 C 729.89 231.49 743.92 245.83 753.19 262.79 C 755.96 267.92 758.22 273.29 760.17 278.79 C 760.86 281.12 761.53 283.46 762.19 285.81 C 762.84 289.15 763.51 292.49 764.21 295.83 C 764.53 301.87 765.24 307.99 764.87 314.00 C 765.43 320.61 765.46 327.40 764.85 334.00 C 765.15 335.33 765.28 336.68 765.23 338.06 C 765.20 356.84 765.31 375.62 765.18 394.40 L 764.09 395.00 L 765.18 395.59 C 765.19 417.04 765.49 438.50 764.46 459.92 C 761.47 488.02 744.27 513.44 721.19 529.21 C 707.62 538.45 691.60 544.79 675.02 544.86 C 567.70 544.87 460.38 544.83 353.06 544.89 C 343.04 545.01 333.00 543.24 323.76 539.33 C 294.41 527.13 270.28 501.22 262.91 469.98 C 260.82 461.13 260.46 452.01 260.58 442.95 C 260.46 403.96 260.47 364.97 260.59 325.98 C 260.70 314.26 260.02 302.42 262.29 290.86 C 266.09 269.77 277.42 250.48 292.72 235.65 M 352.40 234.53 C 324.98 239.21 301.21 259.34 290.58 284.85 C 286.17 295.30 283.16 306.55 283.45 317.97 C 283.45 358.31 283.46 398.66 283.45 439.00 C 283.35 447.05 284.18 455.15 286.47 462.89 C 291.05 480.37 302.22 495.69 316.46 506.63 C 323.30 511.44 330.70 515.48 338.48 518.58 C 342.33 520.10 347.31 520.68 350.59 517.62 C 353.80 515.43 354.35 510.78 352.43 507.57 C 350.61 503.94 346.60 502.40 343.05 501.03 C 320.27 492.28 303.62 469.49 302.45 445.09 C 302.38 400.84 302.14 356.58 302.48 312.33 C 303.94 296.10 311.48 280.50 323.08 269.08 C 333.16 259.86 345.98 252.36 360.03 252.61 C 459.70 252.67 559.37 252.41 659.04 252.65 C 663.72 252.65 668.45 252.58 673.08 253.44 C 678.59 254.43 683.72 256.84 688.63 259.45 C 703.88 268.27 716.20 282.77 720.68 299.99 C 723.68 309.05 722.65 318.66 722.82 328.03 C 722.90 340.03 722.57 352.04 723.16 364.03 C 723.01 391.69 722.76 419.32 722.81 446.98 C 721.90 470.89 704.54 492.01 682.89 500.97 C 678.99 502.60 674.17 504.49 673.10 509.09 C 671.63 513.69 674.91 519.49 679.95 519.74 C 685.79 520.48 690.81 516.93 695.86 514.61 C 710.31 507.59 722.53 496.27 730.81 482.53 C 735.30 474.50 738.65 465.83 740.68 456.86 C 742.86 446.37 742.10 435.61 742.24 424.97 C 742.15 389.29 742.24 353.61 742.16 317.93 C 742.06 303.80 738.22 289.81 731.53 277.39 C 718.02 253.07 692.10 235.13 663.98 233.85 C 653.97 233.62 643.96 233.74 633.95 233.74 C 545.33 233.73 456.71 233.77 368.09 233.67 C 362.85 233.72 357.59 233.73 352.40 234.53 M 363.03 364.09 C 361.22 365.16 358.95 365.75 357.81 367.64 C 361.44 367.53 365.44 367.14 368.57 369.39 C 375.34 373.63 379.07 383.37 374.62 390.52 C 370.43 398.37 358.89 400.86 352.01 395.08 C 347.26 391.58 345.58 385.50 346.01 379.83 C 339.92 386.81 338.68 396.99 340.10 405.86 C 341.73 417.50 349.20 427.75 358.74 434.31 C 361.13 435.61 363.57 436.81 366.03 437.98 C 367.06 438.28 368.08 438.61 369.11 438.97 C 382.50 443.24 397.62 439.23 408.06 430.09 C 415.39 423.28 420.60 413.97 421.44 403.90 C 422.52 393.18 419.12 382.17 412.14 373.97 C 405.11 365.41 394.17 360.01 383.04 360.20 C 376.19 360.00 369.09 360.66 363.03 364.09 M 620.61 367.36 C 622.97 368.36 625.50 367.19 627.95 367.45 C 633.75 367.53 638.40 372.19 640.65 377.18 C 644.23 385.07 639.36 395.38 630.95 397.53 C 623.34 400.14 614.82 394.78 612.34 387.47 C 611.08 384.42 611.46 381.09 611.43 377.89 C 603.99 386.12 602.32 398.36 604.67 408.92 C 607.27 420.20 615.13 430.11 625.13 435.80 C 642.42 445.56 666.21 439.87 677.77 423.91 C 683.05 417.13 685.97 408.61 685.90 400.01 C 686.08 385.59 677.23 371.86 664.77 364.95 C 656.73 360.21 647.00 359.55 637.90 360.50 C 631.65 361.24 625.91 364.09 620.61 367.36 M 482.65 430.77 C 475.89 433.62 473.55 442.72 477.25 448.86 C 482.43 458.07 492.34 463.76 502.37 466.28 C 514.87 468.81 528.69 466.82 539.17 459.27 C 544.72 455.50 550.11 450.02 550.52 442.96 C 551.16 436.50 545.71 429.96 539.09 430.11 C 533.93 429.67 530.42 434.02 527.40 437.51 C 521.65 444.15 511.20 445.32 503.55 441.48 C 498.66 439.15 496.30 433.70 491.52 431.22 C 488.84 429.67 485.49 429.85 482.65 430.77 Z" />
<path fill="#fcfefd" opacity="1.00" d=" M 405.58 636.02 C 411.19 614.10 432.31 597.20 454.98 596.80 C 492.64 596.69 530.30 596.75 567.96 596.74 C 576.68 596.81 585.40 598.64 593.18 602.68 C 609.51 611.08 621.64 628.32 621.60 647.00 C 621.60 713.66 621.69 780.32 621.55 846.98 C 621.64 853.31 621.09 860.07 617.48 865.50 C 614.04 871.39 607.65 875.42 600.85 876.01 C 592.57 876.56 584.25 876.34 575.96 876.17 C 566.59 875.56 558.67 867.36 558.32 857.99 C 558.12 846.69 558.45 835.38 558.33 824.08 C 558.24 817.41 558.70 810.35 555.68 804.19 C 552.18 796.22 544.64 790.39 536.12 788.76 C 521.73 788.41 507.34 788.59 492.96 788.73 C 483.93 788.81 475.17 794.02 471.06 802.10 C 467.98 807.88 467.51 814.59 467.70 821.02 C 467.73 832.99 467.68 844.96 467.77 856.94 C 467.84 866.94 459.10 875.87 449.11 876.15 C 440.75 876.31 432.32 876.60 423.98 875.77 C 412.11 874.49 404.28 862.29 404.31 850.99 C 404.10 786.00 404.23 721.00 404.28 656.00 C 404.35 649.33 403.88 642.54 405.58 636.02 M 498.22 651.37 C 487.58 655.51 479.00 664.81 476.07 675.89 C 473.08 685.57 474.04 696.54 479.15 705.34 C 484.46 714.62 493.53 721.68 503.97 724.20 C 510.63 725.03 517.61 725.36 524.06 723.12 C 535.99 719.71 545.92 710.00 549.60 698.15 C 552.28 689.51 551.87 679.95 548.49 671.56 C 544.72 662.94 537.82 655.65 529.24 651.73 C 519.45 647.66 508.09 647.49 498.22 651.37 Z" />
<path fill="#fcfefd" opacity="1.00" d=" M 358.14 639.06 C 363.32 634.86 368.01 630.09 373.32 626.05 C 373.06 628.70 372.73 631.35 372.77 634.02 C 372.72 651.01 372.70 668.00 372.75 684.99 C 372.69 688.00 373.12 691.07 372.37 694.03 C 369.56 695.57 367.49 698.08 365.02 700.08 C 357.48 706.44 350.09 712.98 342.85 719.68 C 341.54 720.75 340.63 722.44 338.95 722.98 C 333.19 719.28 328.57 714.05 323.23 709.80 C 316.01 703.22 308.04 697.47 301.14 690.55 C 301.19 690.24 301.30 689.62 301.36 689.31 C 320.30 672.58 339.43 656.05 358.14 639.06 Z" />
<path fill="#fcfefd" opacity="1.00" d=" M 653.51 626.08 C 654.72 628.23 656.81 629.64 658.62 631.27 C 662.52 634.39 665.98 638.00 669.84 641.17 C 688.16 657.74 707.09 673.63 725.55 690.04 C 716.92 697.56 708.34 705.13 699.83 712.79 C 695.82 716.35 692.21 720.40 687.76 723.44 C 681.75 718.40 675.87 713.22 669.97 708.06 C 664.43 702.96 658.19 698.52 653.21 692.87 C 652.98 672.25 653.28 651.60 652.96 630.97 C 653.06 629.32 653.30 627.70 653.51 626.08 Z" />
<path fill="#fcfefd" opacity="1.00" d=" M 282.04 716.38 C 283.32 716.29 284.25 717.12 285.08 718.01 C 295.80 728.24 307.01 737.95 318.02 747.86 C 318.49 748.15 319.43 748.74 319.89 749.04 C 319.90 750.60 319.32 752.09 318.02 753.03 C 310.48 759.00 299.14 759.20 291.20 753.87 C 279.10 746.13 275.33 728.89 282.04 716.38 Z" />
<path fill="#fcfefd" opacity="1.00" d=" M 740.44 718.46 C 741.54 717.85 742.53 715.50 743.93 716.64 C 747.10 723.22 747.44 730.79 746.08 737.88 C 743.77 746.89 736.74 755.25 727.31 757.07 C 721.88 758.51 716.06 757.39 711.19 754.75 C 709.02 753.41 706.78 751.72 706.16 749.11 C 718.23 739.65 728.90 728.54 740.44 718.46 Z" />
<path fill="#fcfefd" opacity="1.00" d=" M 499.31 820.28 C 508.36 820.23 517.42 820.25 526.47 820.23 C 526.49 836.53 525.80 852.89 526.96 869.15 C 517.98 867.90 508.88 869.21 499.87 869.58 C 499.29 870.37 498.71 871.17 498.17 872.00 C 499.44 864.75 499.11 857.36 499.19 850.04 C 499.27 840.12 499.20 830.20 499.31 820.28 Z" />
</g>
<g id="#000000ff">
<path fill="#000000" opacity="1.00" d=" M 483.63 118.64 C 496.75 101.73 525.31 100.20 539.78 116.18 C 553.91 129.71 554.30 154.57 540.55 168.50 C 538.19 171.60 534.39 173.12 532.03 176.16 C 571.35 176.75 610.70 176.27 650.03 176.44 C 662.00 176.58 674.06 176.01 685.92 177.99 C 718.40 182.78 748.40 200.75 768.68 226.48 C 782.26 243.28 791.15 263.75 794.40 285.09 C 795.61 293.01 795.26 301.04 795.33 309.01 C 795.25 319.01 795.29 329.00 795.25 339.00 C 794.57 343.36 799.05 345.64 801.74 348.19 C 819.62 361.77 827.98 386.79 821.27 408.30 C 819.04 415.84 814.88 422.62 810.01 428.72 C 805.84 433.68 800.36 437.30 796.01 442.07 C 795.01 443.08 795.25 444.65 795.14 445.95 C 795.14 451.97 795.28 458.00 795.09 464.02 C 794.61 482.59 787.49 500.33 778.10 516.12 C 767.93 532.49 754.26 546.77 738.01 557.19 C 723.36 566.81 706.56 572.84 689.40 576.08 C 674.05 578.36 658.48 577.01 643.02 577.15 C 656.97 589.15 671.36 600.63 685.07 612.92 C 709.12 633.50 733.23 654.02 756.88 675.08 C 771.59 688.61 780.92 708.02 781.42 728.08 C 782.42 751.62 769.23 775.42 748.17 786.25 C 732.62 794.50 713.23 795.21 697.23 787.82 C 687.11 783.27 678.56 775.48 672.82 766.02 C 668.84 759.37 666.91 751.81 665.44 744.28 C 661.61 740.67 657.19 737.76 653.32 734.20 C 652.97 773.44 653.22 812.68 653.18 851.92 C 653.54 860.77 651.81 869.77 647.52 877.57 C 642.29 887.17 635.02 895.96 625.39 901.38 C 617.23 906.40 607.55 908.82 598.00 908.64 C 589.32 908.58 580.65 908.74 571.97 908.50 C 558.97 908.24 546.76 901.35 538.36 891.67 C 532.70 885.30 528.47 877.58 526.96 869.15 C 525.80 852.89 526.49 836.53 526.47 820.23 C 517.42 820.25 508.36 820.23 499.31 820.28 C 499.20 830.20 499.27 840.12 499.19 850.04 C 499.11 857.36 499.44 864.75 498.17 872.00 C 492.85 891.75 474.59 907.45 453.99 908.52 C 442.87 908.70 431.73 908.72 420.61 908.44 C 401.77 907.06 386.18 893.24 377.78 877.02 C 374.82 871.09 373.13 864.54 372.72 857.94 C 372.60 816.71 372.87 775.47 372.63 734.26 C 369.11 738.36 363.98 740.96 360.59 745.14 C 359.13 754.39 356.09 763.64 350.12 771.02 C 336.51 789.60 310.68 797.34 288.83 790.76 C 272.83 786.41 259.32 774.72 251.77 760.08 C 242.98 744.30 242.44 724.87 248.01 707.92 C 252.37 693.39 262.07 681.09 273.48 671.38 C 309.20 640.42 344.42 608.90 380.73 578.66 C 381.36 578.15 381.76 577.50 381.94 576.71 C 372.67 577.78 363.32 577.21 354.02 577.40 C 320.90 577.94 288.51 562.93 265.69 539.25 C 249.54 522.46 237.13 501.62 232.13 478.73 C 229.44 467.28 230.65 455.43 230.32 443.78 C 228.97 441.80 227.11 440.27 225.32 438.72 C 220.29 434.75 215.93 430.01 212.19 424.82 C 202.58 411.85 199.84 394.51 203.67 378.96 C 205.61 369.31 211.02 360.75 217.55 353.52 C 221.26 349.55 226.00 346.64 229.53 342.49 C 230.46 340.48 230.11 338.17 230.21 336.03 C 230.37 321.66 229.97 307.29 230.39 292.93 C 233.04 258.34 251.86 226.05 278.81 204.61 C 298.90 188.28 324.20 178.54 350.01 176.81 C 358.69 176.38 367.38 176.48 376.07 176.43 C 409.71 176.43 443.35 176.42 476.99 176.41 C 482.36 176.34 487.75 176.72 493.10 176.08 C 487.22 170.90 481.26 165.39 478.15 158.00 C 476.22 153.95 475.52 149.52 474.85 145.13 C 474.77 143.38 474.77 141.64 474.83 139.90 C 476.02 132.26 478.40 124.53 483.63 118.64 M 292.72 235.65 C 277.42 250.48 266.09 269.77 262.29 290.86 C 260.02 302.42 260.70 314.26 260.59 325.98 C 260.47 364.97 260.46 403.96 260.58 442.95 C 260.46 452.01 260.82 461.13 262.91 469.98 C 270.28 501.22 294.41 527.13 323.76 539.33 C 333.00 543.24 343.04 545.01 353.06 544.89 C 460.38 544.83 567.70 544.87 675.02 544.86 C 691.60 544.79 707.62 538.45 721.19 529.21 C 744.27 513.44 761.47 488.02 764.46 459.92 C 765.49 438.50 765.19 417.04 765.18 395.59 L 764.09 395.00 L 765.18 394.40 C 765.31 375.62 765.20 356.84 765.23 338.06 C 765.28 336.68 765.15 335.33 764.85 334.00 C 765.46 327.40 765.43 320.61 764.87 314.00 C 765.24 307.99 764.53 301.87 764.21 295.83 C 763.51 292.49 762.84 289.15 762.19 285.81 C 761.53 283.46 760.86 281.12 760.17 278.79 C 758.22 273.29 755.96 267.92 753.19 262.79 C 743.92 245.83 729.89 231.49 713.14 221.84 C 706.35 218.19 699.30 214.98 691.95 212.66 C 679.09 208.41 665.42 208.74 652.06 208.81 C 556.71 208.82 461.36 208.81 366.02 208.83 C 359.63 208.73 353.24 209.10 346.89 209.65 C 326.76 212.53 307.51 221.70 292.72 235.65 M 405.58 636.02 C 403.88 642.54 404.35 649.33 404.28 656.00 C 404.23 721.00 404.10 786.00 404.31 850.99 C 404.28 862.29 412.11 874.49 423.98 875.77 C 432.32 876.60 440.75 876.31 449.11 876.15 C 459.10 875.87 467.84 866.94 467.77 856.94 C 467.68 844.96 467.73 832.99 467.70 821.02 C 467.51 814.59 467.98 807.88 471.06 802.10 C 475.17 794.02 483.93 788.81 492.96 788.73 C 507.34 788.59 521.73 788.41 536.12 788.76 C 544.64 790.39 552.18 796.22 555.68 804.19 C 558.70 810.35 558.24 817.41 558.33 824.08 C 558.45 835.38 558.12 846.69 558.32 857.99 C 558.67 867.36 566.59 875.56 575.96 876.17 C 584.25 876.34 592.57 876.56 600.85 876.01 C 607.65 875.42 614.04 871.39 617.48 865.50 C 621.09 860.07 621.64 853.31 621.55 846.98 C 621.69 780.32 621.60 713.66 621.60 647.00 C 621.64 628.32 609.51 611.08 593.18 602.68 C 585.40 598.64 576.68 596.81 567.96 596.74 C 530.30 596.75 492.64 596.69 454.98 596.80 C 432.31 597.20 411.19 614.10 405.58 636.02 M 358.14 639.06 C 339.43 656.05 320.30 672.58 301.36 689.31 C 301.30 689.62 301.19 690.24 301.14 690.55 C 308.04 697.47 316.01 703.22 323.23 709.80 C 328.57 714.05 333.19 719.28 338.95 722.98 C 340.63 722.44 341.54 720.75 342.85 719.68 C 350.09 712.98 357.48 706.44 365.02 700.08 C 367.49 698.08 369.56 695.57 372.37 694.03 C 373.12 691.07 372.69 688.00 372.75 684.99 C 372.70 668.00 372.72 651.01 372.77 634.02 C 372.73 631.35 373.06 628.70 373.32 626.05 C 368.01 630.09 363.32 634.86 358.14 639.06 M 653.51 626.08 C 653.30 627.70 653.06 629.32 652.96 630.97 C 653.28 651.60 652.98 672.25 653.21 692.87 C 658.19 698.52 664.43 702.96 669.97 708.06 C 675.87 713.22 681.75 718.40 687.76 723.44 C 692.21 720.40 695.82 716.35 699.83 712.79 C 708.34 705.13 716.92 697.56 725.55 690.04 C 707.09 673.63 688.16 657.74 669.84 641.17 C 665.98 638.00 662.52 634.39 658.62 631.27 C 656.81 629.64 654.72 628.23 653.51 626.08 M 282.04 716.38 C 275.33 728.89 279.10 746.13 291.20 753.87 C 299.14 759.20 310.48 759.00 318.02 753.03 C 319.32 752.09 319.90 750.60 319.89 749.04 C 319.43 748.74 318.49 748.15 318.02 747.86 C 307.01 737.95 295.80 728.24 285.08 718.01 C 284.25 717.12 283.32 716.29 282.04 716.38 M 740.44 718.46 C 728.90 728.54 718.23 739.65 706.16 749.11 C 706.78 751.72 709.02 753.41 711.19 754.75 C 716.06 757.39 721.88 758.51 727.31 757.07 C 736.74 755.25 743.77 746.89 746.08 737.88 C 747.44 730.79 747.10 723.22 743.93 716.64 C 742.53 715.50 741.54 717.85 740.44 718.46 Z" />
<path fill="#000000" opacity="1.00" d=" M 363.03 364.09 C 369.09 360.66 376.19 360.00 383.04 360.20 C 394.17 360.01 405.11 365.41 412.14 373.97 C 419.12 382.17 422.52 393.18 421.44 403.90 C 420.60 413.97 415.39 423.28 408.06 430.09 C 397.62 439.23 382.50 443.24 369.11 438.97 C 368.08 438.61 367.06 438.28 366.03 437.98 C 363.57 436.81 361.13 435.61 358.74 434.31 C 349.20 427.75 341.73 417.50 340.10 405.86 C 338.68 396.99 339.92 386.81 346.01 379.83 C 345.58 385.50 347.26 391.58 352.01 395.08 C 358.89 400.86 370.43 398.37 374.62 390.52 C 379.07 383.37 375.34 373.63 368.57 369.39 C 365.44 367.14 361.44 367.53 357.81 367.64 C 358.95 365.75 361.22 365.16 363.03 364.09 Z" />
<path fill="#000000" opacity="1.00" d=" M 620.61 367.36 C 625.91 364.09 631.65 361.24 637.90 360.50 C 647.00 359.55 656.73 360.21 664.77 364.95 C 677.23 371.86 686.08 385.59 685.90 400.01 C 685.97 408.61 683.05 417.13 677.77 423.91 C 666.21 439.87 642.42 445.56 625.13 435.80 C 615.13 430.11 607.27 420.20 604.67 408.92 C 602.32 398.36 603.99 386.12 611.43 377.89 C 611.46 381.09 611.08 384.42 612.34 387.47 C 614.82 394.78 623.34 400.14 630.95 397.53 C 639.36 395.38 644.23 385.07 640.65 377.18 C 638.40 372.19 633.75 367.53 627.95 367.45 C 625.50 367.19 622.97 368.36 620.61 367.36 Z" />
<path fill="#000000" opacity="1.00" d=" M 482.65 430.77 C 485.49 429.85 488.84 429.67 491.52 431.22 C 496.30 433.70 498.66 439.15 503.55 441.48 C 511.20 445.32 521.65 444.15 527.40 437.51 C 530.42 434.02 533.93 429.67 539.09 430.11 C 545.71 429.96 551.16 436.50 550.52 442.96 C 550.11 450.02 544.72 455.50 539.17 459.27 C 528.69 466.82 514.87 468.81 502.37 466.28 C 492.34 463.76 482.43 458.07 477.25 448.86 C 473.55 442.72 475.89 433.62 482.65 430.77 Z" />
<path fill="#000000" opacity="1.00" d=" M 498.22 651.37 C 508.09 647.49 519.45 647.66 529.24 651.73 C 537.82 655.65 544.72 662.94 548.49 671.56 C 551.87 679.95 552.28 689.51 549.60 698.15 C 545.92 710.00 535.99 719.71 524.06 723.12 C 517.61 725.36 510.63 725.03 503.97 724.20 C 493.53 721.68 484.46 714.62 479.15 705.34 C 474.04 696.54 473.08 685.57 476.07 675.89 C 479.00 664.81 487.58 655.51 498.22 651.37 Z" />
</g>
<g id="#a6a6a8ff">
<path fill="#a6a6a8" opacity="1.00" d=" M 352.40 234.53 C 357.59 233.73 362.85 233.72 368.09 233.67 C 456.71 233.77 545.33 233.73 633.95 233.74 C 643.96 233.74 653.97 233.62 663.98 233.85 C 692.10 235.13 718.02 253.07 731.53 277.39 C 738.22 289.81 742.06 303.80 742.16 317.93 C 742.24 353.61 742.15 389.29 742.24 424.97 C 742.10 435.61 742.86 446.37 740.68 456.86 C 738.65 465.83 735.30 474.50 730.81 482.53 C 722.53 496.27 710.31 507.59 695.86 514.61 C 690.81 516.93 685.79 520.48 679.95 519.74 C 674.91 519.49 671.63 513.69 673.10 509.09 C 674.17 504.49 678.99 502.60 682.89 500.97 C 704.54 492.01 721.90 470.89 722.81 446.98 C 722.76 419.32 723.01 391.69 723.16 364.03 C 722.57 352.04 722.90 340.03 722.82 328.03 C 722.65 318.66 723.68 309.05 720.68 299.99 C 716.20 282.77 703.88 268.27 688.63 259.45 C 683.72 256.84 678.59 254.43 673.08 253.44 C 668.45 252.58 663.72 252.65 659.04 252.65 C 559.37 252.41 459.70 252.67 360.03 252.61 C 345.98 252.36 333.16 259.86 323.08 269.08 C 311.48 280.50 303.94 296.10 302.48 312.33 C 302.14 356.58 302.38 400.84 302.45 445.09 C 303.62 469.49 320.27 492.28 343.05 501.03 C 346.60 502.40 350.61 503.94 352.43 507.57 C 354.35 510.78 353.80 515.43 350.59 517.62 C 347.31 520.68 342.33 520.10 338.48 518.58 C 330.70 515.48 323.30 511.44 316.46 506.63 C 302.22 495.69 291.05 480.37 286.47 462.89 C 284.18 455.15 283.35 447.05 283.45 439.00 C 283.46 398.66 283.45 358.31 283.45 317.97 C 283.16 306.55 286.17 295.30 290.58 284.85 C 301.21 259.34 324.98 239.21 352.40 234.53 Z" />
</g>
<g id="#d5d6d8ff">
<path fill="#d5d6d8" opacity="1.00" d=" M 499.87 869.58 C 508.88 869.21 517.98 867.90 526.96 869.15 C 528.47 877.58 532.70 885.30 538.36 891.67 C 546.76 901.35 558.97 908.24 571.97 908.50 C 580.65 908.74 589.32 908.58 598.00 908.64 C 607.55 908.82 617.23 906.40 625.39 901.38 C 635.02 895.96 642.29 887.17 647.52 877.57 C 659.10 879.14 670.52 881.87 681.71 885.25 C 688.15 887.76 695.12 889.85 700.23 894.75 C 703.48 897.43 703.00 903.18 699.49 905.46 C 691.61 911.76 681.66 914.51 672.09 917.13 C 660.98 919.92 649.65 921.72 638.33 923.43 C 619.41 925.86 600.51 928.78 581.41 929.45 C 547.99 931.61 514.47 931.73 481.01 930.95 C 441.69 929.93 402.36 926.58 363.68 919.31 C 355.57 917.42 347.49 915.35 339.69 912.42 C 335.26 910.76 330.76 908.89 327.18 905.73 C 325.32 903.98 323.40 901.62 323.81 898.90 C 325.10 894.57 329.01 891.69 332.95 889.88 C 347.08 883.10 362.81 881.13 377.78 877.02 C 386.18 893.24 401.77 907.06 420.61 908.44 C 431.73 908.72 442.87 908.70 453.99 908.52 C 474.59 907.45 492.85 891.75 498.17 872.00 C 498.71 871.17 499.29 870.37 499.87 869.58 Z" />
</g>
</svg>
